<?xml version="1.0" encoding="UTF-8"?>
<svg version="1.1" xmlns="http://www.w3.org/2000/svg" width="512" height="512">
<path d="M0 0 C46.8950518 15.27165546 81.59498124 50.35685558 104.08374023 93.43212891 C115.93081747 116.95193556 123.91697828 144.39683014 124.19702148 170.83447266 C124.20677002 171.60598663 124.21651855 172.37750061 124.2265625 173.1723938 C124.39527507 189.97089332 124.23617515 206.05540322 119.95874023 222.41650391 C119.77682129 223.16013184 119.59490234 223.90375977 119.4074707 224.66992188 C114.02184812 246.46749532 103.57971626 266.39864656 88.95874023 283.41650391 C88.37092773 284.14869141 87.78311523 284.88087891 87.17749023 285.63525391 C66.09574658 311.00480983 32.18897493 322.25534962 0.34216309 325.24093628 C-6.95844425 325.77871341 -14.28935434 325.61807941 -21.60375977 325.54150391 C-23.30883252 325.5314349 -25.01391116 325.52231611 -26.71899414 325.51416016 C-30.82656612 325.49250099 -34.93384433 325.45819704 -39.04125977 325.41650391 C-39.23244385 326.54580322 -39.42362793 327.67510254 -39.62060547 328.83862305 C-45.39455454 362.53502713 -59.48543793 390.59465255 -83.04125977 415.41650391 C-83.48695313 415.88942871 -83.93264648 416.36235352 -84.3918457 416.84960938 C-112.81735019 446.82612801 -155.21980401 469.01227984 -197.04125977 470.41650391 C-198.16145508 470.45646484 -199.28165039 470.49642578 -200.43579102 470.53759766 C-246.3008703 471.35404409 -285.57717351 450.46526215 -318.04125977 419.41650391 C-318.71930664 418.77970703 -319.39735352 418.14291016 -320.09594727 417.48681641 C-325.22791058 412.54404989 -329.62943272 406.99932056 -334.04125977 401.41650391 C-334.5968457 400.73974609 -335.15243164 400.06298828 -335.72485352 399.36572266 C-337.79059461 396.72648969 -338.99275951 394.65415514 -339.66625977 391.35400391 C-338.82389908 387.3949087 -337.2982457 384.76667241 -334.04125977 382.41650391 C-330.9274239 381.21171134 -328.34369519 380.89836318 -325.04125977 381.41650391 C-320.08994487 384.06607118 -316.63184623 388.96208249 -313.02563477 393.15869141 C-288.77093443 420.75557485 -252.81323198 438.49786081 -216.14428711 441.28759766 C-181.49486436 443.41145361 -146.75967578 434.94573936 -119.04125977 413.41650391 C-118.07961914 412.67529297 -117.11797852 411.93408203 -116.12719727 411.17041016 C-87.46951462 388.39426293 -70.06346857 355.23279835 -64.04125977 319.41650391 C-65.21172852 319.34818359 -66.38219727 319.27986328 -67.58813477 319.20947266 C-74.74705515 318.39900252 -81.49233526 316.0077509 -88.29125977 313.72900391 C-89.36741043 313.37094162 -89.36741043 313.37094162 -90.46530151 313.00564575 C-111.82435153 305.83696903 -132.46349763 296.24159893 -151.04125977 283.41650391 C-151.92177002 282.82240723 -151.92177002 282.82240723 -152.82006836 282.21630859 C-188.6601117 257.98504731 -216.25405098 225.17733793 -225.50610352 182.26025391 C-225.82042984 180.29679087 -225.95884347 178.40479702 -226.04125977 176.41650391 C-226.09282227 175.24732422 -226.14438477 174.07814453 -226.19750977 172.87353516 C-226.67925221 156.57192833 -223.57721812 141.72643775 -212.72875977 129.04150391 C-201.76653416 117.6026598 -187.9652806 112.50635042 -172.29125977 112.10400391 C-149.64369755 112.52067983 -132.75396262 122.84424588 -116.76391602 137.88134766 C-114.63108413 139.86729873 -112.47910884 141.75640187 -110.22875977 143.60400391 C-107.12436436 146.22964917 -104.52122945 149.15677149 -101.89672852 152.25634766 C-100.6615942 153.69430402 -99.39275803 155.10399372 -98.09204102 156.48291016 C-67.86139057 188.61345361 -47.78285777 231.35981017 -40.29125977 274.66650391 C-40.17556641 275.32602051 -40.05987305 275.98553711 -39.94067383 276.66503906 C-38.79402518 283.86383171 -38.46859627 291.14700857 -38.04125977 298.41650391 C-10.85023903 299.21826528 -10.85023903 299.21826528 15.95874023 295.41650391 C16.67046387 295.25021484 17.3821875 295.08392578 18.11547852 294.91259766 C38.3837812 290.03411161 54.99613879 279.87700463 69.95874023 265.41650391 C70.62389648 264.77712891 71.28905273 264.13775391 71.97436523 263.47900391 C95.39973142 239.10138706 102.74094391 204.46321727 102.26342773 171.85009766 C100.83657126 125.80744389 77.01496717 84.09177584 45.95874023 51.41650391 C45.37995117 50.78486328 44.80116211 50.15322266 44.20483398 49.50244141 C30.8841378 35.41388555 13.52748053 24.57746195 -4.07275391 16.81469727 C-5.36427368 16.23473999 -5.36427368 16.23473999 -6.68188477 15.64306641 C-7.83479004 15.14154053 -7.83479004 15.14154053 -9.01098633 14.62988281 C-11.42045423 13.18988095 -12.59214727 11.81051869 -14.04125977 9.41650391 C-14.54125977 5.91650391 -14.54125977 5.91650391 -14.04125977 2.41650391 C-9.82155405 -2.6982909 -5.96170542 -1.70415931 0 0 Z M-189.22875977 140.54150391 C-199.24418939 153.40685253 -202.40582675 169.48518439 -201.04125977 185.41650391 C-197.14163961 210.13731027 -171.98615442 234.07607852 -153.04125977 248.41650391 C-152.10926758 249.17576172 -151.17727539 249.93501953 -150.21704102 250.71728516 C-128.80857424 267.90436411 -91.65838913 293.41650391 -63.04125977 293.41650391 C-64.03112718 244.91300078 -95.46688449 195.51563718 -128.04125977 161.41650391 C-128.50032715 160.93020508 -128.95939453 160.44390625 -129.43237305 159.94287109 C-137.69143511 151.22384726 -146.23195987 144.81838329 -156.72875977 139.10400391 C-157.34654297 138.76602783 -157.96432617 138.42805176 -158.60083008 138.07983398 C-169.54780026 132.30356658 -180.33818799 130.89865298 -189.22875977 140.54150391 Z " fill="#4185F4" transform="translate(388.041259765625,21.58349609375)"/>
<path d="M0 0 C1.5463916 0.30200317 1.5463916 0.30200317 3.12402344 0.61010742 C13.88903193 2.882133 13.88903193 2.882133 17.25 7.3125 C18.14708761 10.45230664 17.84738994 12.38835221 16.875 15.5 C14.9375 17.875 14.9375 17.875 11.875 19.5 C6.54088794 19.96980421 1.20559129 19.50748354 -4.08691406 18.78857422 C-21.92386355 16.40897215 -40.17163379 17.33013555 -58.125 17.5 C-55.98857455 43.57133673 -55.98857455 43.57133673 -50.70043945 69.11791992 C-48.44872245 77.11509295 -47.98152447 84.10093656 -52.125 91.5 C-54.54296194 94.17702929 -55.83166925 94.4612582 -59.4375 94.9375 C-63.7949278 94.42051704 -66.89921942 93.45567933 -70.125 90.5 C-83.59285947 72.19099104 -82.47225876 37.39643549 -82.6875 15.3125 C-82.70203217 14.59991028 -82.71656433 13.88732056 -82.73153687 13.15313721 C-82.76690495 11.12973057 -82.76125385 9.10573363 -82.75390625 7.08203125 C-82.75463135 5.92936768 -82.75535645 4.7767041 -82.75610352 3.58911133 C-81.93128698 -0.44818214 -80.2812912 -1.93614992 -77.125 -4.5 C-55.61617101 -11.66960966 -21.2900191 -4.1610027 0 0 Z " fill="#4185F4" transform="translate(82.125,375.5)"/>
</svg>
