<svg width="28" height="23" viewBox="0 0 28 23" fill="none" xmlns="http://www.w3.org/2000/svg">
  <path class="HeartFullPath"
    d="M0.5 7.67929C0.5 10.2722 1.81423 12.5649 3.82688 13.9554L12.4105 21.4445C13.4302 22.3342 14.9537 22.3223 15.9595 21.4169L24.592 13.6451C26.3662 12.2371 27.5001 10.0877 27.5001 7.67929C27.5001 3.43814 23.9839 0 19.6464 0C17.43 0 15.428 0.897744 14 2.34164C12.5721 0.897744 10.5701 0 8.35369 0C4.01622 0 0.5 3.43814 0.5 7.67929Z"
    fill="#FF4B4B" />
  <path opacity="0.3" fill-rule="evenodd" clip-rule="evenodd"
    d="M8.0348 10.9896C9.76872 10.9896 11.1743 9.54248 11.1743 7.75737C11.1743 5.97226 9.76872 4.52515 8.0348 4.52515C6.30088 4.52515 4.89526 5.97226 4.89526 7.75737C4.89526 9.54248 6.30088 10.9896 8.0348 10.9896Z"
    fill="white" />
</svg>