<svg width="55" height="55" viewBox="0 0 55 55" fill="none" xmlns="http://www.w3.org/2000/svg"><path d="M8.09155 21.986C8.09155 25.7475 9.99814 29.0736 12.9179 31.0908L25.3704 41.9554C26.8497 43.2462 29.0599 43.2289 30.519 41.9154L43.0423 30.6407C45.6163 28.5981 47.2612 25.4799 47.2612 21.986C47.2612 15.8332 42.1601 10.8455 35.8676 10.8455C32.6522 10.8455 29.7479 12.1478 27.6764 14.2425C25.6048 12.1478 22.7005 10.8455 19.4851 10.8455C13.1926 10.8455 8.09155 15.8332 8.09155 21.986Z" fill="url(#paint0_linear_5716_152973)"/><path fill-rule="evenodd" clip-rule="evenodd" d="M11.0242 33.5093C7.41041 30.9443 5.02417 26.7499 5.02417 21.9859C5.02417 14.0744 11.5639 7.77783 19.4853 7.77783C22.5195 7.77783 25.3443 8.69857 27.6766 10.2757C30.0089 8.69857 32.8337 7.77783 35.8678 7.77783C43.7892 7.77783 50.3289 14.0744 50.3289 21.9859C50.3289 26.434 48.2471 30.3892 45.0284 32.9804L32.5716 44.1951C29.9594 46.5469 26.0024 46.5777 23.3539 44.2669L11.0242 33.5093ZM12.9181 31.0908C9.99833 29.0736 8.09175 25.7475 8.09175 21.9859C8.09175 15.8332 13.1928 10.8454 19.4853 10.8454C22.6091 10.8454 25.4394 12.0747 27.4976 14.0655C27.5579 14.1239 27.6176 14.1828 27.6766 14.2425C27.7355 14.1829 27.7951 14.1239 27.8554 14.0656C29.9136 12.0747 32.7439 10.8454 35.8678 10.8454C42.1603 10.8454 47.2614 15.8332 47.2614 21.9859C47.2614 25.4798 45.6165 28.598 43.0425 30.6406L30.5192 41.9153C29.0601 43.2289 26.8499 43.2461 25.3706 41.9554L12.9181 31.0908Z" fill="white"/><path fill-rule="evenodd" clip-rule="evenodd" d="M25.5152 28.5441C23.5401 30.5192 20.3378 30.5192 18.3628 28.5441C16.3877 26.5691 16.3877 23.3668 18.3628 21.3917C20.3378 19.4166 23.5401 19.4166 25.5152 21.3917L29.0914 24.9679L25.5152 28.5441ZM20.105 26.8019C21.1179 27.8148 22.7601 27.8148 23.7729 26.8019L25.6069 24.9679L23.7729 23.134C22.7601 22.1211 21.1179 22.1211 20.105 23.134C19.0921 24.1468 19.0921 25.789 20.105 26.8019Z" fill="#FEFEFE"/><path fill-rule="evenodd" clip-rule="evenodd" d="M29.3847 28.5441C31.3598 30.5192 34.5621 30.5192 36.5372 28.5441C38.5122 26.5691 38.5122 23.3668 36.5372 21.3917C34.5621 19.4166 31.3598 19.4166 29.3847 21.3917L25.8085 24.9679L29.3847 28.5441ZM34.7949 26.8019C33.782 27.8148 32.1398 27.8148 31.127 26.8019L29.293 24.9679L31.127 23.134C32.1398 22.1211 33.782 22.1211 34.7949 23.134C35.8078 24.1468 35.8078 25.789 34.7949 26.8019Z" fill="#FEFEFE"/><defs><linearGradient id="paint0_linear_5716_152973" x1="21.3008" y1="10.8455" x2="31.5615" y2="45.8275" gradientUnits="userSpaceOnUse"><stop stop-color="#26F663"/><stop offset="0.601579" stop-color="#268AFF"/><stop offset="0.940172" stop-color="#FC55FF"/></linearGradient></defs></svg>